frame:23   pts:23552   pts_time:0.490667
lavfi.silence_start=0
frame:154  pts:157696  pts_time:3.28533
lavfi.silence_end=3.29354
lavfi.silence_duration=3.29354
frame:177  pts:181248  pts_time:3.776
lavfi.silence_start=3.2936
frame:208  pts:212992  pts_time:4.43733
lavfi.silence_end=4.45381
lavfi.silence_duration=1.16021
frame:305  pts:312320  pts_time:6.50667
lavfi.silence_start=6.01685
frame:399  pts:408576  pts_time:8.512
lavfi.silence_end=8.52908
lavfi.silence_duration=2.51223
frame:423  pts:433152  pts_time:9.024
lavfi.silence_start=8.52915
lavfi.silence_end=9.0376
lavfi.silence_duration=0.508458
frame:454  pts:464896  pts_time:9.68533
lavfi.silence_start=9.20075
frame:521  pts:533504  pts_time:11.1147
lavfi.silence_end=11.1182
lavfi.silence_duration=1.91742
frame:636  pts:651264  pts_time:13.568
lavfi.silence_start=13.068
frame:640  pts:655360  pts_time:13.6533
lavfi.silence_end=13.6636
lavfi.silence_duration=0.595604
frame:789  pts:807936  pts_time:16.832
lavfi.silence_start=16.3415
frame:797  pts:816128  pts_time:17.0027
lavfi.silence_end=17.0041
lavfi.silence_duration=0.662667
frame:934  pts:956416  pts_time:19.9253
lavfi.silence_start=19.4315
frame:951  pts:973824  pts_time:20.288
lavfi.silence_end=20.3039
lavfi.silence_duration=0.872375
frame:1013 pts:1037312 pts_time:21.6107
lavfi.silence_start=21.1301
frame:1015 pts:1039360 pts_time:21.6533
lavfi.silence_end=21.6594
lavfi.silence_duration=0.529292
frame:1395 pts:1428480 pts_time:29.76
lavfi.silence_start=29.2682
frame:1397 pts:1430528 pts_time:29.8027
lavfi.silence_end=29.8231
lavfi.silence_duration=0.554875
frame:1575 pts:1612800 pts_time:33.6
lavfi.silence_start=33.1152
frame:1583 pts:1620992 pts_time:33.7707
lavfi.silence_end=33.7844
lavfi.silence_duration=0.669229
frame:1637 pts:1676288 pts_time:34.9227
lavfi.silence_start=34.4331
